<mxfile host="app.diagrams.net" modified="2023-12-14T01:41:20.894Z" agent="Mozilla/5.0 (Macintosh; Intel Mac OS X 10_15_7) AppleWebKit/537.36 (KHTML, like Gecko) Chrome/119.0.0.0 Safari/537.36" etag="KcA5pZ6kHBGmx3Dp6ZW_" version="22.1.5" type="github">
  <diagram name="Page-1" id="74e2e168-ea6b-b213-b513-2b3c1d86103e">
    <mxGraphModel dx="2759" dy="920" grid="0" gridSize="10" guides="1" tooltips="1" connect="1" arrows="1" fold="1" page="1" pageScale="1" pageWidth="1100" pageHeight="850" background="none" math="0" shadow="0">
      <root>
        <mxCell id="0" />
        <mxCell id="1" parent="0" />
        <mxCell id="77e6c97f196da883-1" value="Pool" style="swimlane;html=1;childLayout=stackLayout;startSize=20;rounded=0;shadow=0;labelBackgroundColor=none;strokeWidth=1;fontFamily=Verdana;fontSize=8;align=center;fillColor=default;" parent="1" vertex="1">
          <mxGeometry x="-770" y="30" width="730" height="770" as="geometry" />
        </mxCell>
        <mxCell id="77e6c97f196da883-28" style="edgeStyle=orthogonalEdgeStyle;rounded=1;html=1;labelBackgroundColor=none;startArrow=none;startFill=0;startSize=5;endArrow=classicThin;endFill=1;endSize=5;jettySize=auto;orthogonalLoop=1;strokeWidth=1;fontFamily=Verdana;fontSize=8" parent="77e6c97f196da883-1" source="77e6c97f196da883-9" target="77e6c97f196da883-12" edge="1">
          <mxGeometry relative="1" as="geometry" />
        </mxCell>
        <mxCell id="77e6c97f196da883-2" value="web" style="swimlane;html=1;startSize=20;" parent="77e6c97f196da883-1" vertex="1">
          <mxGeometry y="20" width="380" height="750" as="geometry" />
        </mxCell>
        <mxCell id="AV3jcZzdO7MZx4MTj1sI-43" style="edgeStyle=orthogonalEdgeStyle;rounded=0;orthogonalLoop=1;jettySize=auto;html=1;exitX=0.5;exitY=1;exitDx=0;exitDy=0;" edge="1" parent="77e6c97f196da883-2" source="77e6c97f196da883-8" target="77e6c97f196da883-9">
          <mxGeometry relative="1" as="geometry" />
        </mxCell>
        <mxCell id="77e6c97f196da883-8" value="入口链接&lt;br&gt;qianxun.vivo.com/share?shareId=xxx" style="rounded=1;whiteSpace=wrap;html=1;shadow=0;labelBackgroundColor=none;strokeWidth=1;fontFamily=Verdana;fontSize=8;align=center;" parent="77e6c97f196da883-2" vertex="1">
          <mxGeometry x="100.28" y="30" width="140" height="60" as="geometry" />
        </mxCell>
        <mxCell id="77e6c97f196da883-9" value="获取shareId" style="rounded=1;whiteSpace=wrap;html=1;shadow=0;labelBackgroundColor=none;strokeWidth=1;fontFamily=Verdana;fontSize=8;align=center;" parent="77e6c97f196da883-2" vertex="1">
          <mxGeometry x="100.78" y="130" width="140" height="40" as="geometry" />
        </mxCell>
        <mxCell id="77e6c97f196da883-10" value="打开官网&lt;br&gt;qianxun.vivo.com&lt;br&gt;iOS跳转应用商店" style="rounded=1;whiteSpace=wrap;html=1;shadow=0;labelBackgroundColor=none;strokeWidth=1;fontFamily=Verdana;fontSize=8;align=center;" parent="77e6c97f196da883-2" vertex="1">
          <mxGeometry x="100" y="670" width="140" height="60" as="geometry" />
        </mxCell>
        <mxCell id="AV3jcZzdO7MZx4MTj1sI-41" style="edgeStyle=orthogonalEdgeStyle;rounded=1;orthogonalLoop=1;jettySize=auto;html=1;exitX=0;exitY=0.5;exitDx=0;exitDy=0;endArrow=none;endFill=0;labelBackgroundColor=none;fontSize=8;fontFamily=Verdana;strokeColor=#000000;fontColor=#000000;startArrow=none;startFill=0;startSize=5;endSize=5;strokeWidth=1;entryX=0;entryY=0.5;entryDx=0;entryDy=0;" edge="1" parent="77e6c97f196da883-2" source="AV3jcZzdO7MZx4MTj1sI-4" target="AV3jcZzdO7MZx4MTj1sI-9">
          <mxGeometry relative="1" as="geometry">
            <mxPoint x="170.78" y="360" as="targetPoint" />
            <Array as="points">
              <mxPoint x="20.78" y="230" />
              <mxPoint x="20.78" y="440" />
            </Array>
          </mxGeometry>
        </mxCell>
        <mxCell id="AV3jcZzdO7MZx4MTj1sI-4" value="展示分享不可用页面提示" style="rounded=1;whiteSpace=wrap;html=1;shadow=0;labelBackgroundColor=none;strokeWidth=1;fontFamily=Verdana;fontSize=8;align=center;" vertex="1" parent="77e6c97f196da883-2">
          <mxGeometry x="100.78" y="210" width="140" height="40" as="geometry" />
        </mxCell>
        <mxCell id="AV3jcZzdO7MZx4MTj1sI-13" style="edgeStyle=orthogonalEdgeStyle;rounded=1;orthogonalLoop=1;jettySize=auto;html=1;exitX=0.5;exitY=1;exitDx=0;exitDy=0;entryX=0.5;entryY=0;entryDx=0;entryDy=0;labelBackgroundColor=none;endArrow=classicThin;fontSize=8;fontFamily=Verdana;strokeColor=#000000;fontColor=#000000;startArrow=none;startFill=0;startSize=5;endFill=1;endSize=5;strokeWidth=1;" edge="1" parent="77e6c97f196da883-2" source="AV3jcZzdO7MZx4MTj1sI-7" target="AV3jcZzdO7MZx4MTj1sI-9">
          <mxGeometry relative="1" as="geometry">
            <mxPoint x="133.78" y="410" as="targetPoint" />
            <Array as="points">
              <mxPoint x="170.78" y="390" />
              <mxPoint x="133.78" y="390" />
            </Array>
          </mxGeometry>
        </mxCell>
        <mxCell id="AV3jcZzdO7MZx4MTj1sI-15" style="edgeStyle=orthogonalEdgeStyle;rounded=1;orthogonalLoop=1;jettySize=auto;html=1;exitX=0.5;exitY=1;exitDx=0;exitDy=0;labelBackgroundColor=none;endArrow=classicThin;fontSize=8;fontFamily=Verdana;strokeColor=#000000;fontColor=#000000;startArrow=none;startFill=0;startSize=5;endFill=1;endSize=5;strokeWidth=1;" edge="1" parent="77e6c97f196da883-2" source="AV3jcZzdO7MZx4MTj1sI-7" target="AV3jcZzdO7MZx4MTj1sI-12">
          <mxGeometry relative="1" as="geometry">
            <Array as="points">
              <mxPoint x="170.78" y="390" />
              <mxPoint x="207.78" y="390" />
            </Array>
          </mxGeometry>
        </mxCell>
        <mxCell id="AV3jcZzdO7MZx4MTj1sI-7" value="展示分享对话详情" style="rounded=1;whiteSpace=wrap;html=1;shadow=0;labelBackgroundColor=none;strokeWidth=1;fontFamily=Verdana;fontSize=8;align=center;" vertex="1" parent="77e6c97f196da883-2">
          <mxGeometry x="100.78" y="290" width="140" height="60" as="geometry" />
        </mxCell>
        <mxCell id="AV3jcZzdO7MZx4MTj1sI-48" style="edgeStyle=orthogonalEdgeStyle;rounded=1;orthogonalLoop=1;jettySize=auto;html=1;exitX=0.5;exitY=1;exitDx=0;exitDy=0;labelBackgroundColor=none;endArrow=classicThin;fontSize=8;fontFamily=Verdana;strokeColor=#000000;fontColor=#000000;startArrow=none;startFill=0;startSize=5;endFill=1;endSize=5;strokeWidth=1;" edge="1" parent="77e6c97f196da883-2" source="AV3jcZzdO7MZx4MTj1sI-9" target="77e6c97f196da883-10">
          <mxGeometry relative="1" as="geometry">
            <Array as="points">
              <mxPoint x="133" y="650" />
              <mxPoint x="170" y="650" />
            </Array>
          </mxGeometry>
        </mxCell>
        <mxCell id="AV3jcZzdO7MZx4MTj1sI-9" value="点击按钮&lt;br&gt;即可下载" style="rounded=1;whiteSpace=wrap;html=1;shadow=0;labelBackgroundColor=none;strokeWidth=1;fontFamily=Verdana;fontSize=8;align=center;" vertex="1" parent="77e6c97f196da883-2">
          <mxGeometry x="98.28" y="420" width="70" height="40" as="geometry" />
        </mxCell>
        <mxCell id="AV3jcZzdO7MZx4MTj1sI-44" style="edgeStyle=orthogonalEdgeStyle;rounded=1;orthogonalLoop=1;jettySize=auto;html=1;exitX=0.5;exitY=1;exitDx=0;exitDy=0;entryX=0.5;entryY=0;entryDx=0;entryDy=0;labelBackgroundColor=none;endArrow=classicThin;fontSize=8;fontFamily=Verdana;strokeColor=#000000;fontColor=#000000;startArrow=none;startFill=0;startSize=5;endFill=1;endSize=5;strokeWidth=1;" edge="1" parent="77e6c97f196da883-2" source="AV3jcZzdO7MZx4MTj1sI-12" target="AV3jcZzdO7MZx4MTj1sI-32">
          <mxGeometry relative="1" as="geometry">
            <Array as="points">
              <mxPoint x="208" y="470" />
              <mxPoint x="208" y="470" />
            </Array>
          </mxGeometry>
        </mxCell>
        <mxCell id="AV3jcZzdO7MZx4MTj1sI-12" value="点击按钮&lt;br&gt;打开app" style="rounded=1;whiteSpace=wrap;html=1;shadow=0;labelBackgroundColor=none;strokeWidth=1;fontFamily=Verdana;fontSize=8;align=center;" vertex="1" parent="77e6c97f196da883-2">
          <mxGeometry x="173.28" y="420" width="70" height="40" as="geometry" />
        </mxCell>
        <mxCell id="AV3jcZzdO7MZx4MTj1sI-46" style="edgeStyle=orthogonalEdgeStyle;rounded=1;orthogonalLoop=1;jettySize=auto;html=1;exitX=0.5;exitY=1;exitDx=0;exitDy=0;labelBackgroundColor=none;endArrow=classicThin;fontSize=8;fontFamily=Verdana;strokeColor=#000000;fontColor=#000000;startArrow=none;startFill=0;startSize=5;endFill=1;endSize=5;strokeWidth=1;entryX=0.5;entryY=0;entryDx=0;entryDy=0;" edge="1" parent="77e6c97f196da883-2" source="AV3jcZzdO7MZx4MTj1sI-21" target="77e6c97f196da883-10">
          <mxGeometry relative="1" as="geometry">
            <mxPoint x="260" y="660" as="targetPoint" />
            <Array as="points">
              <mxPoint x="208" y="650" />
              <mxPoint x="170" y="650" />
            </Array>
          </mxGeometry>
        </mxCell>
        <mxCell id="AV3jcZzdO7MZx4MTj1sI-21" value="deeplink唤起&lt;br&gt;拼接问题" style="rhombus;whiteSpace=wrap;html=1;rounded=0;shadow=0;labelBackgroundColor=none;strokeWidth=1;fontFamily=Verdana;fontSize=8;align=center;" vertex="1" parent="77e6c97f196da883-2">
          <mxGeometry x="168.28" y="560" width="80" height="60" as="geometry" />
        </mxCell>
        <mxCell id="AV3jcZzdO7MZx4MTj1sI-45" style="edgeStyle=orthogonalEdgeStyle;rounded=1;orthogonalLoop=1;jettySize=auto;html=1;exitX=0.5;exitY=1;exitDx=0;exitDy=0;entryX=0.5;entryY=0;entryDx=0;entryDy=0;labelBackgroundColor=none;endArrow=classicThin;fontSize=8;fontFamily=Verdana;strokeColor=#000000;fontColor=#000000;startArrow=none;startFill=0;startSize=5;endFill=1;endSize=5;strokeWidth=1;" edge="1" parent="77e6c97f196da883-2" source="AV3jcZzdO7MZx4MTj1sI-32" target="AV3jcZzdO7MZx4MTj1sI-21">
          <mxGeometry relative="1" as="geometry" />
        </mxCell>
        <mxCell id="AV3jcZzdO7MZx4MTj1sI-49" value="否" style="edgeLabel;html=1;align=center;verticalAlign=middle;resizable=0;points=[];" vertex="1" connectable="0" parent="AV3jcZzdO7MZx4MTj1sI-45">
          <mxGeometry x="-0.36" relative="1" as="geometry">
            <mxPoint as="offset" />
          </mxGeometry>
        </mxCell>
        <mxCell id="AV3jcZzdO7MZx4MTj1sI-51" style="edgeStyle=orthogonalEdgeStyle;rounded=1;orthogonalLoop=1;jettySize=auto;html=1;exitX=1;exitY=0.5;exitDx=0;exitDy=0;entryX=0;entryY=0.5;entryDx=0;entryDy=0;labelBackgroundColor=none;endArrow=classicThin;fontSize=8;fontFamily=Verdana;strokeColor=#000000;fontColor=#000000;startArrow=none;startFill=0;startSize=5;endFill=1;endSize=5;strokeWidth=1;" edge="1" parent="77e6c97f196da883-2" source="AV3jcZzdO7MZx4MTj1sI-32" target="AV3jcZzdO7MZx4MTj1sI-38">
          <mxGeometry relative="1" as="geometry" />
        </mxCell>
        <mxCell id="AV3jcZzdO7MZx4MTj1sI-52" value="是" style="edgeLabel;html=1;align=center;verticalAlign=middle;resizable=0;points=[];" vertex="1" connectable="0" parent="AV3jcZzdO7MZx4MTj1sI-51">
          <mxGeometry x="-0.2707" y="1" relative="1" as="geometry">
            <mxPoint as="offset" />
          </mxGeometry>
        </mxCell>
        <mxCell id="AV3jcZzdO7MZx4MTj1sI-32" value="是否在微信中" style="rhombus;whiteSpace=wrap;html=1;rounded=0;shadow=0;labelBackgroundColor=none;strokeWidth=1;fontFamily=Verdana;fontSize=8;align=center;" vertex="1" parent="77e6c97f196da883-2">
          <mxGeometry x="168.27999999999997" y="480" width="80" height="60" as="geometry" />
        </mxCell>
        <mxCell id="AV3jcZzdO7MZx4MTj1sI-26" value="&lt;span style=&quot;color: rgb(0, 0, 0); font-family: Verdana; font-style: normal; font-variant-ligatures: normal; font-variant-caps: normal; font-weight: 400; letter-spacing: normal; orphans: 2; text-align: center; text-indent: 0px; text-transform: none; widows: 2; word-spacing: 0px; -webkit-text-stroke-width: 0px; background-color: rgb(251, 251, 251); text-decoration-thickness: initial; text-decoration-style: initial; text-decoration-color: initial; float: none; display: inline !important;&quot;&gt;&lt;font style=&quot;font-size: 10px;&quot;&gt;唤起失败或超时&lt;/font&gt;&lt;/span&gt;" style="text;whiteSpace=wrap;html=1;" vertex="1" parent="77e6c97f196da883-2">
          <mxGeometry x="173.27999999999997" y="620" width="90" height="40" as="geometry" />
        </mxCell>
        <mxCell id="AV3jcZzdO7MZx4MTj1sI-38" value="展示提示&lt;br&gt;“使用浏览器打开”" style="rounded=1;whiteSpace=wrap;html=1;shadow=0;labelBackgroundColor=none;strokeWidth=1;fontFamily=Verdana;fontSize=8;align=center;" vertex="1" parent="77e6c97f196da883-2">
          <mxGeometry x="270" y="490" width="100" height="40" as="geometry" />
        </mxCell>
        <mxCell id="77e6c97f196da883-3" value="server" style="swimlane;html=1;startSize=20;" parent="77e6c97f196da883-1" vertex="1">
          <mxGeometry x="380" y="20" width="160" height="750" as="geometry" />
        </mxCell>
        <mxCell id="77e6c97f196da883-12" value="通过shareId查询" style="rounded=1;whiteSpace=wrap;html=1;shadow=0;labelBackgroundColor=none;strokeWidth=1;fontFamily=Verdana;fontSize=8;align=center;" parent="77e6c97f196da883-3" vertex="1">
          <mxGeometry x="30" y="120" width="100" height="60" as="geometry" />
        </mxCell>
        <mxCell id="77e6c97f196da883-13" value="链接是否可用" style="rhombus;whiteSpace=wrap;html=1;rounded=0;shadow=0;labelBackgroundColor=none;strokeWidth=1;fontFamily=Verdana;fontSize=8;align=center;" parent="77e6c97f196da883-3" vertex="1">
          <mxGeometry x="40" y="200" width="80" height="60" as="geometry" />
        </mxCell>
        <mxCell id="77e6c97f196da883-29" style="edgeStyle=orthogonalEdgeStyle;rounded=1;html=1;labelBackgroundColor=none;startArrow=none;startFill=0;startSize=5;endArrow=classicThin;endFill=1;endSize=5;jettySize=auto;orthogonalLoop=1;strokeWidth=1;fontFamily=Verdana;fontSize=8" parent="77e6c97f196da883-3" source="77e6c97f196da883-12" target="77e6c97f196da883-13" edge="1">
          <mxGeometry relative="1" as="geometry" />
        </mxCell>
        <mxCell id="77e6c97f196da883-15" value="获取分享的对话数据" style="rounded=1;whiteSpace=wrap;html=1;shadow=0;labelBackgroundColor=none;strokeWidth=1;fontFamily=Verdana;fontSize=8;align=center;" parent="77e6c97f196da883-3" vertex="1">
          <mxGeometry x="30" y="290" width="100" height="60" as="geometry" />
        </mxCell>
        <mxCell id="77e6c97f196da883-33" value="&lt;font style=&quot;font-size: 10px;&quot;&gt;是&lt;/font&gt;" style="edgeStyle=orthogonalEdgeStyle;rounded=1;html=1;labelBackgroundColor=none;startArrow=none;startFill=0;startSize=5;endArrow=classicThin;endFill=1;endSize=5;jettySize=auto;orthogonalLoop=1;strokeWidth=1;fontFamily=Verdana;fontSize=8" parent="77e6c97f196da883-3" source="77e6c97f196da883-13" target="77e6c97f196da883-15" edge="1">
          <mxGeometry x="0.4096" relative="1" as="geometry">
            <mxPoint as="offset" />
          </mxGeometry>
        </mxCell>
        <mxCell id="AV3jcZzdO7MZx4MTj1sI-5" style="edgeStyle=orthogonalEdgeStyle;rounded=1;orthogonalLoop=1;jettySize=auto;html=1;exitX=0;exitY=0.5;exitDx=0;exitDy=0;entryX=1;entryY=0.5;entryDx=0;entryDy=0;labelBackgroundColor=none;endArrow=classicThin;fontSize=8;fontFamily=Verdana;strokeColor=#000000;fontColor=#000000;startArrow=none;startFill=0;startSize=5;endFill=1;endSize=5;strokeWidth=1;" edge="1" parent="77e6c97f196da883-1" source="77e6c97f196da883-13" target="AV3jcZzdO7MZx4MTj1sI-4">
          <mxGeometry relative="1" as="geometry" />
        </mxCell>
        <mxCell id="AV3jcZzdO7MZx4MTj1sI-6" value="否" style="edgeLabel;html=1;align=center;verticalAlign=middle;resizable=0;points=[];" vertex="1" connectable="0" parent="AV3jcZzdO7MZx4MTj1sI-5">
          <mxGeometry x="-0.0909" y="-1" relative="1" as="geometry">
            <mxPoint as="offset" />
          </mxGeometry>
        </mxCell>
        <mxCell id="AV3jcZzdO7MZx4MTj1sI-8" style="edgeStyle=orthogonalEdgeStyle;rounded=1;orthogonalLoop=1;jettySize=auto;html=1;exitX=0;exitY=0.5;exitDx=0;exitDy=0;entryX=1;entryY=0.5;entryDx=0;entryDy=0;labelBackgroundColor=none;endArrow=classicThin;fontSize=8;fontFamily=Verdana;strokeColor=#000000;fontColor=#000000;startArrow=none;startFill=0;startSize=5;endFill=1;endSize=5;strokeWidth=1;" edge="1" parent="77e6c97f196da883-1" source="77e6c97f196da883-15" target="AV3jcZzdO7MZx4MTj1sI-7">
          <mxGeometry relative="1" as="geometry" />
        </mxCell>
        <mxCell id="AV3jcZzdO7MZx4MTj1sI-23" style="edgeStyle=orthogonalEdgeStyle;rounded=1;orthogonalLoop=1;jettySize=auto;html=1;exitX=1;exitY=0.5;exitDx=0;exitDy=0;entryX=0;entryY=0.5;entryDx=0;entryDy=0;labelBackgroundColor=none;endArrow=classicThin;fontSize=8;fontFamily=Verdana;strokeColor=#000000;fontColor=#000000;startArrow=none;startFill=0;startSize=5;endFill=1;endSize=5;strokeWidth=1;" edge="1" parent="77e6c97f196da883-1" source="AV3jcZzdO7MZx4MTj1sI-21" target="77e6c97f196da883-14">
          <mxGeometry relative="1" as="geometry" />
        </mxCell>
        <mxCell id="AV3jcZzdO7MZx4MTj1sI-25" value="唤起成功" style="edgeLabel;html=1;align=center;verticalAlign=middle;resizable=0;points=[];" vertex="1" connectable="0" parent="AV3jcZzdO7MZx4MTj1sI-23">
          <mxGeometry x="-0.0363" y="1" relative="1" as="geometry">
            <mxPoint as="offset" />
          </mxGeometry>
        </mxCell>
        <mxCell id="77e6c97f196da883-4" value="client" style="swimlane;html=1;startSize=20;" parent="77e6c97f196da883-1" vertex="1">
          <mxGeometry x="540" y="20" width="160" height="750" as="geometry" />
        </mxCell>
        <mxCell id="77e6c97f196da883-14" value="打开客户端&lt;br&gt;根据参数填充对话框" style="rounded=1;whiteSpace=wrap;html=1;shadow=0;labelBackgroundColor=none;strokeWidth=1;fontFamily=Verdana;fontSize=8;align=center;" parent="77e6c97f196da883-4" vertex="1">
          <mxGeometry x="30" y="475" width="100" height="60" as="geometry" />
        </mxCell>
      </root>
    </mxGraphModel>
  </diagram>
</mxfile>
